<svg version="1.1" id="Layer_1" xmlns="http://www.w3.org/2000/svg" xmlns:xlink="http://www.w3.org/1999/xlink" x="0px" y="0px"
	 width="100%" viewBox="0 0 96 96" enable-background="new 0 0 96 96" xml:space="preserve">
<path fill="#000000" opacity="1.000000" stroke="none" 
	d="
M65.000000,97.000000 
	C43.333336,97.000000 22.166674,97.000000 1.000009,97.000000 
	C1.000006,65.000008 1.000006,33.000019 1.000003,1.000021 
	C32.999985,1.000014 64.999969,1.000014 96.999969,1.000007 
	C96.999977,32.999981 96.999977,64.999962 96.999985,96.999969 
	C86.500000,97.000000 76.000000,97.000000 65.000000,97.000000 
M23.053202,86.954536 
	C41.472275,86.969658 59.891678,87.037811 78.309937,86.922768 
	C80.281731,86.910454 82.445557,86.177338 84.180115,85.184349 
	C91.107445,81.218643 91.187813,66.411446 83.973045,62.751434 
	C80.845078,61.164635 76.753067,61.478195 73.010338,60.003967 
	C73.010338,43.804493 73.010338,27.605019 73.010338,11.405545 
	C72.539940,11.177582 72.069542,10.949617 71.599144,10.721654 
	C69.453003,13.204983 67.306854,15.688312 64.281044,19.189518 
	C61.791840,16.066954 59.546700,13.250557 56.559799,9.503663 
	C53.811504,13.022024 51.672794,15.759998 48.724308,19.534643 
	C45.931446,15.969476 43.708614,13.131971 40.755379,9.362087 
	C37.874954,13.048491 35.735878,15.786112 33.425430,18.743052 
	C30.241014,15.696879 27.653454,13.221648 23.695810,9.435813 
	C21.426998,12.722869 19.370935,15.701696 16.432280,19.959223 
	C13.502323,16.432291 11.441553,13.951640 9.164788,11.210988 
	C9.164788,30.738579 9.164788,49.855961 9.017178,69.877998 
	C9.011514,71.360870 8.999217,72.843758 9.001268,74.326622 
	C9.014142,83.629738 12.902473,87.328407 23.053202,86.954536 
z"/>
<path fill="#90CAF9" opacity="1.000000" stroke="none" 
	d="
M9.164788,68.973343 
	C9.164788,49.855961 9.164788,30.738579 9.164788,11.210988 
	C11.441553,13.951640 13.502323,16.432291 16.432280,19.959223 
	C19.370935,15.701696 21.426998,12.722869 23.695810,9.435813 
	C27.653454,13.221648 30.241014,15.696879 33.425430,18.743052 
	C35.735878,15.786112 37.874954,13.048491 40.755379,9.362087 
	C43.708614,13.131971 45.931446,15.969476 48.724308,19.534643 
	C51.672794,15.759998 53.811504,13.022024 56.559799,9.503663 
	C59.546700,13.250557 61.791840,16.066954 64.281044,19.189518 
	C67.306854,15.688312 69.453003,13.204983 71.599144,10.721654 
	C72.069542,10.949617 72.539940,11.177582 73.010338,11.405545 
	C73.010338,27.605019 73.010338,43.804493 72.581085,60.486023 
	C58.034279,60.978630 43.916504,60.954617 29.799398,61.040291 
	C27.879381,61.051937 25.962692,61.612179 23.649864,61.935104 
	C16.162556,59.484379 12.407761,63.715309 9.164788,68.973343 
M36.429733,29.000109 
	C32.300903,29.003565 28.166643,28.893957 24.047159,29.091911 
	C23.047707,29.139936 22.096956,30.201441 21.123812,30.796926 
	C22.126726,31.528105 23.098877,32.835064 24.137892,32.890572 
	C28.584505,33.128147 33.063782,33.201168 37.504894,32.919754 
	C39.988541,32.762379 42.420780,31.793806 44.876186,31.190758 
	C43.420288,26.918238 39.824585,29.952093 36.429733,29.000109 
M60.879471,38.562920 
	C60.633232,38.164074 60.395557,37.422855 60.139503,37.416451 
	C53.713181,37.255692 47.284630,37.122231 40.857510,37.160065 
	C40.276020,37.163483 39.701546,38.358139 39.123814,38.999592 
	C40.031071,39.661942 40.918262,40.862499 41.848919,40.897194 
	C46.969151,41.088089 52.103195,41.092152 57.224918,40.926300 
	C58.457848,40.886368 59.662029,39.958824 60.879471,38.562920 
M35.317028,56.999832 
	C35.976837,56.998722 36.731430,57.204643 37.277317,56.954708 
	C38.530972,56.380722 39.682945,55.584648 40.876194,54.878723 
	C39.602039,54.253181 38.355747,53.167423 37.048508,53.088268 
	C33.104099,52.849419 29.122969,52.819057 25.184139,53.099892 
	C23.789230,53.199345 22.474905,54.429024 21.123791,55.142723 
	C22.405096,55.761127 23.650589,56.800907 24.974884,56.913460 
	C28.086563,57.177917 31.235907,56.999237 35.317028,56.999832 
M59.897507,56.795990 
	C61.668026,54.643963 61.401470,53.170673 58.407394,53.057274 
	C54.786861,52.920139 51.151463,52.918648 47.535599,53.108284 
	C46.704197,53.151886 45.926178,54.213367 45.123592,54.806423 
	C45.961849,55.530148 46.766296,56.826504 47.644230,56.878342 
	C51.420940,57.101345 55.219231,56.958870 59.897507,56.795990 
M21.119633,38.559036 
	C23.335918,43.398632 27.571419,40.120632 30.804426,40.845543 
	C31.323315,40.961887 32.178154,39.579937 32.877689,38.890621 
	C32.105492,38.270782 31.332972,37.123466 30.561155,37.123940 
	C27.493826,37.125813 24.426716,37.485973 21.119633,38.559036 
M36.083004,45.209126 
	C34.373997,47.351303 34.595173,48.793484 37.593868,48.951736 
	C39.888550,49.072834 42.211777,49.131996 44.487270,48.889690 
	C45.335300,48.799389 46.083885,47.775200 46.877811,47.176853 
	C46.037746,46.458359 45.257137,45.226124 44.346119,45.120678 
	C41.914520,44.839245 39.426876,45.042076 36.083004,45.209126 
M52.915592,32.946289 
	C55.515759,32.041042 59.199371,35.256443 60.879574,30.852314 
	C58.454449,30.242174 56.050804,29.258789 53.598682,29.117634 
	C50.623276,28.946358 50.379494,30.629053 52.915592,32.946289 
M24.580500,48.996429 
	C26.014893,48.379028 27.449286,47.761627 28.883678,47.144222 
	C28.200106,46.444183 27.471161,45.116001 26.841438,45.161488 
	C24.926508,45.299805 23.049900,45.968639 21.158371,46.430908 
	C22.008827,47.282562 22.859283,48.134220 24.580500,48.996429 
M55.702774,45.014812 
	C53.184189,45.024902 51.997715,46.722538 53.733486,48.244179 
	C54.971539,49.329506 57.739758,48.802090 59.808121,48.687347 
	C60.188545,48.666241 60.487389,47.174519 60.823887,46.361599 
	C59.407509,45.908970 57.991131,45.456345 55.702774,45.014812 
z"/>
<path fill="#BBDEFB" opacity="1.000000" stroke="none" 
	d="
M24.044464,61.918411 
	C25.962692,61.612179 27.879381,61.051937 29.799398,61.040291 
	C43.916504,60.954617 58.034279,60.978630 72.625397,60.948334 
	C76.753067,61.478195 80.845078,61.164635 83.973045,62.751434 
	C91.187813,66.411446 91.107445,81.218643 84.180115,85.184349 
	C82.445557,86.177338 80.281731,86.910454 78.309937,86.922768 
	C59.891678,87.037811 41.472275,86.969658 22.829334,86.666077 
	C33.156124,81.524506 33.828556,70.094872 24.044464,61.918411 
z"/>
<path fill="#43A5F5" opacity="1.000000" stroke="none" 
	d="
M23.649864,61.935104 
	C33.828556,70.094872 33.156124,81.524506 22.373253,86.603760 
	C12.902473,87.328407 9.014142,83.629738 9.001268,74.326622 
	C8.999217,72.843758 9.011514,71.360870 9.090982,69.425674 
	C12.407761,63.715309 16.162556,59.484379 23.649864,61.935104 
M16.533909,69.196892 
	C16.028486,70.900520 14.778060,72.815483 15.187677,74.259552 
	C15.845159,76.577438 17.334547,78.865463 19.083672,80.519775 
	C19.510376,80.923347 23.600924,79.000244 23.769218,77.826172 
	C24.194302,74.860634 23.996532,71.428810 22.815470,68.721680 
	C21.747225,66.273140 19.034267,66.563072 16.533909,69.196892 
z"/>
<path fill="#1976D2" opacity="1.000000" stroke="none" 
	d="
M36.912971,29.000109 
	C39.824585,29.952093 43.420288,26.918238 44.876186,31.190758 
	C42.420780,31.793806 39.988541,32.762379 37.504894,32.919754 
	C33.063782,33.201168 28.584505,33.128147 24.137892,32.890572 
	C23.098877,32.835064 22.126726,31.528105 21.123810,30.796925 
	C22.096956,30.201441 23.047707,29.139936 24.047159,29.091911 
	C28.166643,28.893957 32.300903,29.003565 36.912971,29.000109 
z"/>
<path fill="#1976D2" opacity="1.000000" stroke="none" 
	d="
M60.879452,39.001198 
	C59.662029,39.958824 58.457848,40.886368 57.224918,40.926300 
	C52.103195,41.092152 46.969151,41.088089 41.848919,40.897194 
	C40.918262,40.862499 40.031071,39.661942 39.123814,38.999592 
	C39.701546,38.358139 40.276020,37.163483 40.857510,37.160065 
	C47.284630,37.122231 53.713181,37.255692 60.139503,37.416451 
	C60.395557,37.422855 60.633232,38.164074 60.879452,39.001198 
z"/>
<path fill="#1976D2" opacity="1.000000" stroke="none" 
	d="
M34.843517,56.999863 
	C31.235907,56.999237 28.086563,57.177917 24.974884,56.913460 
	C23.650589,56.800907 22.405096,55.761127 21.123791,55.142723 
	C22.474905,54.429024 23.789230,53.199345 25.184139,53.099892 
	C29.122969,52.819057 33.104099,52.849419 37.048508,53.088268 
	C38.355747,53.167423 39.602039,54.253181 40.876194,54.878723 
	C39.682945,55.584648 38.530972,56.380722 37.277317,56.954708 
	C36.731430,57.204643 35.976837,56.998722 34.843517,56.999863 
z"/>
<path fill="#1976D2" opacity="1.000000" stroke="none" 
	d="
M59.453583,56.872749 
	C55.219231,56.958870 51.420940,57.101345 47.644230,56.878342 
	C46.766296,56.826504 45.961849,55.530148 45.123592,54.806423 
	C45.926178,54.213367 46.704197,53.151886 47.535599,53.108284 
	C51.151463,52.918648 54.786861,52.920139 58.407394,53.057274 
	C61.401470,53.170673 61.668026,54.643963 59.453583,56.872749 
z"/>
<path fill="#1976D2" opacity="1.000000" stroke="none" 
	d="
M21.239578,38.136223 
	C24.426716,37.485973 27.493826,37.125813 30.561155,37.123940 
	C31.332972,37.123466 32.105492,38.270782 32.877689,38.890621 
	C32.178154,39.579937 31.323315,40.961887 30.804426,40.845543 
	C27.571419,40.120632 23.335918,43.398632 21.239578,38.136223 
z"/>
<path fill="#1976D2" opacity="1.000000" stroke="none" 
	d="
M36.522255,45.130775 
	C39.426876,45.042076 41.914520,44.839245 44.346119,45.120678 
	C45.257137,45.226124 46.037746,46.458359 46.877811,47.176857 
	C46.083885,47.775200 45.335300,48.799389 44.487270,48.889690 
	C42.211777,49.131996 39.888550,49.072834 37.593868,48.951736 
	C34.595173,48.793484 34.373997,47.351303 36.522255,45.130775 
z"/>
<path fill="#1976D2" opacity="1.000000" stroke="none" 
	d="
M52.483810,32.866581 
	C50.379494,30.629053 50.623276,28.946358 53.598682,29.117634 
	C56.050804,29.258789 58.454449,30.242174 60.879574,30.852314 
	C59.199371,35.256443 55.515759,32.041042 52.483810,32.866581 
z"/>
<path fill="#1976D2" opacity="1.000000" stroke="none" 
	d="
M24.145121,48.991154 
	C22.859283,48.134220 22.008827,47.282562 21.158371,46.430908 
	C23.049900,45.968639 24.926508,45.299805 26.841438,45.161488 
	C27.471161,45.116001 28.200106,46.444183 28.883678,47.144222 
	C27.449286,47.761627 26.014893,48.379028 24.145121,48.991154 
z"/>
<path fill="#1976D2" opacity="1.000000" stroke="none" 
	d="
M56.138763,45.009266 
	C57.991131,45.456345 59.407509,45.908970 60.823887,46.361599 
	C60.487389,47.174519 60.188545,48.666241 59.808121,48.687347 
	C57.739758,48.802090 54.971539,49.329506 53.733486,48.244179 
	C51.997715,46.722538 53.184189,45.024902 56.138763,45.009266 
z"/>
<path fill="#1B78D4" opacity="1.000000" stroke="none" 
	d="
M16.780134,68.896812 
	C19.034267,66.563072 21.747225,66.273140 22.815470,68.721680 
	C23.996532,71.428810 24.194302,74.860634 23.769218,77.826172 
	C23.600924,79.000244 19.510376,80.923347 19.083672,80.519775 
	C17.334547,78.865463 15.845159,76.577438 15.187677,74.259552 
	C14.778060,72.815483 16.028486,70.900520 16.780134,68.896812 
z"/>
</svg>