<svg xmlns="http://www.w3.org/2000/svg" xmlns:xlink="http://www.w3.org/1999/xlink" width="500" zoomAndPan="magnify" viewBox="0 0 375 374.999991" height="500" preserveAspectRatio="xMidYMid meet" version="1.2"><defs><clipPath id="de047b0668"><path d="M 1.804688 42 L 229 42 L 229 290 L 1.804688 290 Z M 1.804688 42 "/></clipPath><clipPath id="fa8724bf98"><path d="M 164 181 L 351 181 L 351 344 L 164 344 Z M 164 181 "/></clipPath><clipPath id="df27af32f3"><path d="M 300.871094 389.789062 L 146.222656 315.070312 L 228.117188 145.566406 L 382.761719 220.285156 Z M 300.871094 389.789062 "/></clipPath><clipPath id="9a5366f9c5"><path d="M 300.871094 389.789062 L 146.222656 315.070312 L 228.117188 145.566406 L 382.761719 220.285156 Z M 300.871094 389.789062 "/></clipPath></defs><g id="4d0000be5d"><g clip-rule="nonzero" clip-path="url(#de047b0668)"><path style=" stroke:none;fill-rule:nonzero;fill:#e0f2fe;fill-opacity:1;" d="M 216.1875 149.46875 C 216.1875 179.886719 195.882812 188.910156 177.261719 209.128906 C 157.964844 230.078125 151.171875 289.582031 121.328125 289.582031 C 91.519531 289.582031 51.355469 260.796875 32.070312 239.832031 C 13.472656 219.613281 1.804688 179.867188 1.804688 149.46875 C 1.804688 118.96875 34.445312 98.527344 53.015625 78.320312 C 72.304688 57.332031 91.496094 66.351562 121.335938 66.351562 C 151.203125 66.351562 202.410156 27.894531 221.707031 48.863281 C 240.296875 69.070312 216.1875 118.953125 216.1875 149.46875 Z M 216.1875 149.46875 "/></g><g clip-rule="nonzero" clip-path="url(#fa8724bf98)"><g clip-rule="nonzero" clip-path="url(#df27af32f3)"><g clip-rule="nonzero" clip-path="url(#9a5366f9c5)"><path style=" stroke:none;fill-rule:nonzero;fill:#e0f2fe;fill-opacity:1;" d="M 200.125 243.984375 C 209.640625 224.292969 225.605469 224.800781 243.988281 217.539062 C 263.03125 210.011719 286.039062 173.613281 305.359375 182.949219 C 324.660156 192.269531 341.65625 223.46875 347.585938 243.074219 C 353.300781 261.976562 348.425781 291.359375 338.914062 311.039062 C 329.375 330.785156 301.847656 333.808594 283.507812 341.082031 C 264.457031 348.636719 254.851562 336.792969 235.535156 327.460938 C 216.199219 318.117188 171.019531 327 165.085938 307.386719 C 159.371094 288.492188 190.582031 263.738281 200.125 243.984375 Z M 200.125 243.984375 "/></g></g></g><g style="fill:#0369a1;fill-opacity:0.302;"><g transform="translate(68.154638, 234.315345)"><path style="stroke:none" d="M 36.46875 1.25 C 29.625 1.25 23.710938 0.0546875 18.734375 -2.328125 C 13.765625 -4.722656 9.945312 -8.125 7.28125 -12.53125 C 4.625 -16.9375 3.296875 -22.140625 3.296875 -28.140625 C 3.296875 -33.921875 4.566406 -38.992188 7.109375 -43.359375 C 9.660156 -47.722656 13.15625 -51.140625 17.59375 -53.609375 C 22.039062 -56.078125 27.113281 -57.3125 32.8125 -57.3125 C 36.988281 -57.3125 40.785156 -56.644531 44.203125 -55.3125 C 47.628906 -53.988281 50.554688 -52.050781 52.984375 -49.5 C 55.421875 -46.957031 57.265625 -43.898438 58.515625 -40.328125 C 59.765625 -36.765625 60.390625 -32.78125 60.390625 -28.375 C 60.390625 -26.851562 59.972656 -25.734375 59.140625 -25.015625 C 58.304688 -24.296875 56.976562 -23.9375 55.15625 -23.9375 L 20.28125 -23.9375 L 20.28125 -33.5 L 45.578125 -33.5 L 43.765625 -32.015625 C 43.765625 -34.828125 43.382812 -37.109375 42.625 -38.859375 C 41.863281 -40.609375 40.738281 -41.9375 39.25 -42.84375 C 37.769531 -43.757812 35.929688 -44.21875 33.734375 -44.21875 C 31.378906 -44.21875 29.34375 -43.664062 27.625 -42.5625 C 25.914062 -41.457031 24.601562 -39.84375 23.6875 -37.71875 C 22.78125 -35.59375 22.328125 -32.929688 22.328125 -29.734375 L 22.328125 -28.71875 C 22.328125 -23.320312 23.523438 -19.460938 25.921875 -17.140625 C 28.316406 -14.828125 32.019531 -13.671875 37.03125 -13.671875 C 38.707031 -13.671875 40.625 -13.878906 42.78125 -14.296875 C 44.945312 -14.710938 47.019531 -15.300781 49 -16.0625 C 50.976562 -16.820312 52.6875 -16.953125 54.125 -16.453125 C 55.570312 -15.960938 56.691406 -15.128906 57.484375 -13.953125 C 58.285156 -12.773438 58.722656 -11.445312 58.796875 -9.96875 C 58.867188 -8.488281 58.523438 -7.046875 57.765625 -5.640625 C 57.015625 -4.234375 55.765625 -3.148438 54.015625 -2.390625 C 51.359375 -1.171875 48.523438 -0.257812 45.515625 0.34375 C 42.515625 0.945312 39.5 1.25 36.46875 1.25 Z M 36.46875 1.25 "/></g></g><g style="fill:#0369a1;fill-opacity:0.302;"><g transform="translate(131.39569, 234.315345)"><path style="stroke:none" d="M 12.078125 0 C 10.023438 0 8.351562 -0.507812 7.0625 -1.53125 C 5.769531 -2.5625 4.894531 -3.875 4.4375 -5.46875 C 3.988281 -7.0625 4.007812 -8.789062 4.5 -10.65625 C 4.988281 -12.519531 5.957031 -14.25 7.40625 -15.84375 L 33.84375 -45.6875 L 33.84375 -41.140625 L 11.28125 -41.140625 C 8.851562 -41.140625 6.992188 -41.785156 5.703125 -43.078125 C 4.410156 -44.367188 3.765625 -46.226562 3.765625 -48.65625 C 3.765625 -51.082031 4.410156 -52.921875 5.703125 -54.171875 C 6.992188 -55.429688 8.851562 -56.0625 11.28125 -56.0625 L 43.53125 -56.0625 C 45.8125 -56.0625 47.671875 -55.546875 49.109375 -54.515625 C 50.554688 -53.492188 51.523438 -52.1875 52.015625 -50.59375 C 52.515625 -49 52.535156 -47.289062 52.078125 -45.46875 C 51.617188 -43.644531 50.671875 -41.9375 49.234375 -40.34375 L 22.109375 -9.6875 L 22.109375 -14.921875 L 46.375 -14.921875 C 51.46875 -14.921875 54.015625 -12.453125 54.015625 -7.515625 C 54.015625 -5.085938 53.367188 -3.226562 52.078125 -1.9375 C 50.785156 -0.644531 48.882812 0 46.375 0 Z M 12.078125 0 "/></g></g><g style="fill:#0369a1;fill-opacity:0.302;"><g transform="translate(186.888284, 234.315345)"><path style="stroke:none" d="M 27.796875 1.25 C 23.015625 1.25 18.78125 0.0703125 15.09375 -2.28125 C 11.414062 -4.632812 8.53125 -8.015625 6.4375 -12.421875 C 4.34375 -16.828125 3.296875 -22.03125 3.296875 -28.03125 C 3.296875 -34.1875 4.34375 -39.425781 6.4375 -43.75 C 8.53125 -48.082031 11.414062 -51.425781 15.09375 -53.78125 C 18.78125 -56.132812 23.015625 -57.3125 27.796875 -57.3125 C 31.984375 -57.3125 35.742188 -56.320312 39.078125 -54.34375 C 42.421875 -52.375 44.664062 -49.832031 45.8125 -46.71875 L 44.5625 -46.71875 L 44.5625 -71.109375 C 44.5625 -74.453125 45.429688 -76.992188 47.171875 -78.734375 C 48.921875 -80.484375 51.429688 -81.359375 54.703125 -81.359375 C 57.890625 -81.359375 60.375 -80.484375 62.15625 -78.734375 C 63.945312 -76.992188 64.84375 -74.453125 64.84375 -71.109375 L 64.84375 -9.234375 C 64.84375 -5.890625 63.988281 -3.34375 62.28125 -1.59375 C 60.570312 0.15625 58.082031 1.03125 54.8125 1.03125 C 51.625 1.03125 49.15625 0.15625 47.40625 -1.59375 C 45.65625 -3.34375 44.78125 -5.890625 44.78125 -9.234375 L 44.78125 -15.71875 L 46.03125 -10.140625 C 44.96875 -6.722656 42.742188 -3.96875 39.359375 -1.875 C 35.984375 0.207031 32.128906 1.25 27.796875 1.25 Z M 34.296875 -13.671875 C 36.347656 -13.671875 38.171875 -14.179688 39.765625 -15.203125 C 41.359375 -16.234375 42.59375 -17.789062 43.46875 -19.875 C 44.34375 -21.96875 44.78125 -24.6875 44.78125 -28.03125 C 44.78125 -33.125 43.789062 -36.789062 41.8125 -39.03125 C 39.84375 -41.269531 37.335938 -42.390625 34.296875 -42.390625 C 32.242188 -42.390625 30.421875 -41.894531 28.828125 -40.90625 C 27.234375 -39.914062 25.976562 -38.375 25.0625 -36.28125 C 24.15625 -34.195312 23.703125 -31.445312 23.703125 -28.03125 C 23.703125 -23.019531 24.6875 -19.375 26.65625 -17.09375 C 28.632812 -14.8125 31.179688 -13.671875 34.296875 -13.671875 Z M 34.296875 -13.671875 "/></g></g><g style="fill:#0369a1;fill-opacity:0.302;"><g transform="translate(257.535942, 234.315345)"><path style="stroke:none" d="M 26.890625 1.25 C 22.023438 1.25 18.035156 0.359375 14.921875 -1.421875 C 11.804688 -3.210938 9.46875 -5.890625 7.90625 -9.453125 C 6.351562 -13.023438 5.578125 -17.546875 5.578125 -23.015625 L 5.578125 -46.953125 C 5.578125 -50.296875 6.453125 -52.820312 8.203125 -54.53125 C 9.953125 -56.238281 12.457031 -57.09375 15.71875 -57.09375 C 18.988281 -57.09375 21.5 -56.238281 23.25 -54.53125 C 25 -52.820312 25.875 -50.296875 25.875 -46.953125 L 25.875 -22.453125 C 25.875 -19.710938 26.441406 -17.660156 27.578125 -16.296875 C 28.710938 -14.929688 30.5 -14.25 32.9375 -14.25 C 35.664062 -14.25 37.90625 -15.234375 39.65625 -17.203125 C 41.40625 -19.179688 42.28125 -21.800781 42.28125 -25.0625 L 42.28125 -46.953125 C 42.28125 -50.296875 43.148438 -52.820312 44.890625 -54.53125 C 46.640625 -56.238281 49.148438 -57.09375 52.421875 -57.09375 C 55.679688 -57.09375 58.1875 -56.238281 59.9375 -54.53125 C 61.6875 -52.820312 62.5625 -50.296875 62.5625 -46.953125 L 62.5625 -9.234375 C 62.5625 -2.390625 59.296875 1.03125 52.765625 1.03125 C 49.566406 1.03125 47.09375 0.15625 45.34375 -1.59375 C 43.601562 -3.34375 42.734375 -5.890625 42.734375 -9.234375 L 42.734375 -15.84375 L 44.5625 -10.25 C 42.882812 -6.53125 40.546875 -3.679688 37.546875 -1.703125 C 34.546875 0.265625 30.992188 1.25 26.890625 1.25 Z M 26.890625 1.25 "/></g></g><g style="fill:#0369a1;fill-opacity:0.502;"><g transform="translate(63.118148, 229.278862)"><path style="stroke:none" d="M 36.46875 1.25 C 29.625 1.25 23.710938 0.0546875 18.734375 -2.328125 C 13.765625 -4.722656 9.945312 -8.125 7.28125 -12.53125 C 4.625 -16.9375 3.296875 -22.140625 3.296875 -28.140625 C 3.296875 -33.921875 4.566406 -38.992188 7.109375 -43.359375 C 9.660156 -47.722656 13.15625 -51.140625 17.59375 -53.609375 C 22.039062 -56.078125 27.113281 -57.3125 32.8125 -57.3125 C 36.988281 -57.3125 40.785156 -56.644531 44.203125 -55.3125 C 47.628906 -53.988281 50.554688 -52.050781 52.984375 -49.5 C 55.421875 -46.957031 57.265625 -43.898438 58.515625 -40.328125 C 59.765625 -36.765625 60.390625 -32.78125 60.390625 -28.375 C 60.390625 -26.851562 59.972656 -25.734375 59.140625 -25.015625 C 58.304688 -24.296875 56.976562 -23.9375 55.15625 -23.9375 L 20.28125 -23.9375 L 20.28125 -33.5 L 45.578125 -33.5 L 43.765625 -32.015625 C 43.765625 -34.828125 43.382812 -37.109375 42.625 -38.859375 C 41.863281 -40.609375 40.738281 -41.9375 39.25 -42.84375 C 37.769531 -43.757812 35.929688 -44.21875 33.734375 -44.21875 C 31.378906 -44.21875 29.34375 -43.664062 27.625 -42.5625 C 25.914062 -41.457031 24.601562 -39.84375 23.6875 -37.71875 C 22.78125 -35.59375 22.328125 -32.929688 22.328125 -29.734375 L 22.328125 -28.71875 C 22.328125 -23.320312 23.523438 -19.460938 25.921875 -17.140625 C 28.316406 -14.828125 32.019531 -13.671875 37.03125 -13.671875 C 38.707031 -13.671875 40.625 -13.878906 42.78125 -14.296875 C 44.945312 -14.710938 47.019531 -15.300781 49 -16.0625 C 50.976562 -16.820312 52.6875 -16.953125 54.125 -16.453125 C 55.570312 -15.960938 56.691406 -15.128906 57.484375 -13.953125 C 58.285156 -12.773438 58.722656 -11.445312 58.796875 -9.96875 C 58.867188 -8.488281 58.523438 -7.046875 57.765625 -5.640625 C 57.015625 -4.234375 55.765625 -3.148438 54.015625 -2.390625 C 51.359375 -1.171875 48.523438 -0.257812 45.515625 0.34375 C 42.515625 0.945312 39.5 1.25 36.46875 1.25 Z M 36.46875 1.25 "/></g></g><g style="fill:#0369a1;fill-opacity:0.502;"><g transform="translate(126.359199, 229.278862)"><path style="stroke:none" d="M 12.078125 0 C 10.023438 0 8.351562 -0.507812 7.0625 -1.53125 C 5.769531 -2.5625 4.894531 -3.875 4.4375 -5.46875 C 3.988281 -7.0625 4.007812 -8.789062 4.5 -10.65625 C 4.988281 -12.519531 5.957031 -14.25 7.40625 -15.84375 L 33.84375 -45.6875 L 33.84375 -41.140625 L 11.28125 -41.140625 C 8.851562 -41.140625 6.992188 -41.785156 5.703125 -43.078125 C 4.410156 -44.367188 3.765625 -46.226562 3.765625 -48.65625 C 3.765625 -51.082031 4.410156 -52.921875 5.703125 -54.171875 C 6.992188 -55.429688 8.851562 -56.0625 11.28125 -56.0625 L 43.53125 -56.0625 C 45.8125 -56.0625 47.671875 -55.546875 49.109375 -54.515625 C 50.554688 -53.492188 51.523438 -52.1875 52.015625 -50.59375 C 52.515625 -49 52.535156 -47.289062 52.078125 -45.46875 C 51.617188 -43.644531 50.671875 -41.9375 49.234375 -40.34375 L 22.109375 -9.6875 L 22.109375 -14.921875 L 46.375 -14.921875 C 51.46875 -14.921875 54.015625 -12.453125 54.015625 -7.515625 C 54.015625 -5.085938 53.367188 -3.226562 52.078125 -1.9375 C 50.785156 -0.644531 48.882812 0 46.375 0 Z M 12.078125 0 "/></g></g><g style="fill:#0369a1;fill-opacity:0.502;"><g transform="translate(181.851793, 229.278862)"><path style="stroke:none" d="M 27.796875 1.25 C 23.015625 1.25 18.78125 0.0703125 15.09375 -2.28125 C 11.414062 -4.632812 8.53125 -8.015625 6.4375 -12.421875 C 4.34375 -16.828125 3.296875 -22.03125 3.296875 -28.03125 C 3.296875 -34.1875 4.34375 -39.425781 6.4375 -43.75 C 8.53125 -48.082031 11.414062 -51.425781 15.09375 -53.78125 C 18.78125 -56.132812 23.015625 -57.3125 27.796875 -57.3125 C 31.984375 -57.3125 35.742188 -56.320312 39.078125 -54.34375 C 42.421875 -52.375 44.664062 -49.832031 45.8125 -46.71875 L 44.5625 -46.71875 L 44.5625 -71.109375 C 44.5625 -74.453125 45.429688 -76.992188 47.171875 -78.734375 C 48.921875 -80.484375 51.429688 -81.359375 54.703125 -81.359375 C 57.890625 -81.359375 60.375 -80.484375 62.15625 -78.734375 C 63.945312 -76.992188 64.84375 -74.453125 64.84375 -71.109375 L 64.84375 -9.234375 C 64.84375 -5.890625 63.988281 -3.34375 62.28125 -1.59375 C 60.570312 0.15625 58.082031 1.03125 54.8125 1.03125 C 51.625 1.03125 49.15625 0.15625 47.40625 -1.59375 C 45.65625 -3.34375 44.78125 -5.890625 44.78125 -9.234375 L 44.78125 -15.71875 L 46.03125 -10.140625 C 44.96875 -6.722656 42.742188 -3.96875 39.359375 -1.875 C 35.984375 0.207031 32.128906 1.25 27.796875 1.25 Z M 34.296875 -13.671875 C 36.347656 -13.671875 38.171875 -14.179688 39.765625 -15.203125 C 41.359375 -16.234375 42.59375 -17.789062 43.46875 -19.875 C 44.34375 -21.96875 44.78125 -24.6875 44.78125 -28.03125 C 44.78125 -33.125 43.789062 -36.789062 41.8125 -39.03125 C 39.84375 -41.269531 37.335938 -42.390625 34.296875 -42.390625 C 32.242188 -42.390625 30.421875 -41.894531 28.828125 -40.90625 C 27.234375 -39.914062 25.976562 -38.375 25.0625 -36.28125 C 24.15625 -34.195312 23.703125 -31.445312 23.703125 -28.03125 C 23.703125 -23.019531 24.6875 -19.375 26.65625 -17.09375 C 28.632812 -14.8125 31.179688 -13.671875 34.296875 -13.671875 Z M 34.296875 -13.671875 "/></g></g><g style="fill:#0369a1;fill-opacity:0.502;"><g transform="translate(252.499451, 229.278862)"><path style="stroke:none" d="M 26.890625 1.25 C 22.023438 1.25 18.035156 0.359375 14.921875 -1.421875 C 11.804688 -3.210938 9.46875 -5.890625 7.90625 -9.453125 C 6.351562 -13.023438 5.578125 -17.546875 5.578125 -23.015625 L 5.578125 -46.953125 C 5.578125 -50.296875 6.453125 -52.820312 8.203125 -54.53125 C 9.953125 -56.238281 12.457031 -57.09375 15.71875 -57.09375 C 18.988281 -57.09375 21.5 -56.238281 23.25 -54.53125 C 25 -52.820312 25.875 -50.296875 25.875 -46.953125 L 25.875 -22.453125 C 25.875 -19.710938 26.441406 -17.660156 27.578125 -16.296875 C 28.710938 -14.929688 30.5 -14.25 32.9375 -14.25 C 35.664062 -14.25 37.90625 -15.234375 39.65625 -17.203125 C 41.40625 -19.179688 42.28125 -21.800781 42.28125 -25.0625 L 42.28125 -46.953125 C 42.28125 -50.296875 43.148438 -52.820312 44.890625 -54.53125 C 46.640625 -56.238281 49.148438 -57.09375 52.421875 -57.09375 C 55.679688 -57.09375 58.1875 -56.238281 59.9375 -54.53125 C 61.6875 -52.820312 62.5625 -50.296875 62.5625 -46.953125 L 62.5625 -9.234375 C 62.5625 -2.390625 59.296875 1.03125 52.765625 1.03125 C 49.566406 1.03125 47.09375 0.15625 45.34375 -1.59375 C 43.601562 -3.34375 42.734375 -5.890625 42.734375 -9.234375 L 42.734375 -15.84375 L 44.5625 -10.25 C 42.882812 -6.53125 40.546875 -3.679688 37.546875 -1.703125 C 34.546875 0.265625 30.992188 1.25 26.890625 1.25 Z M 26.890625 1.25 "/></g></g><g style="fill:#0369a1;fill-opacity:1;"><g transform="translate(58.081657, 224.242371)"><path style="stroke:none" d="M 36.46875 1.25 C 29.625 1.25 23.710938 0.0546875 18.734375 -2.328125 C 13.765625 -4.722656 9.945312 -8.125 7.28125 -12.53125 C 4.625 -16.9375 3.296875 -22.140625 3.296875 -28.140625 C 3.296875 -33.921875 4.566406 -38.992188 7.109375 -43.359375 C 9.660156 -47.722656 13.15625 -51.140625 17.59375 -53.609375 C 22.039062 -56.078125 27.113281 -57.3125 32.8125 -57.3125 C 36.988281 -57.3125 40.785156 -56.644531 44.203125 -55.3125 C 47.628906 -53.988281 50.554688 -52.050781 52.984375 -49.5 C 55.421875 -46.957031 57.265625 -43.898438 58.515625 -40.328125 C 59.765625 -36.765625 60.390625 -32.78125 60.390625 -28.375 C 60.390625 -26.851562 59.972656 -25.734375 59.140625 -25.015625 C 58.304688 -24.296875 56.976562 -23.9375 55.15625 -23.9375 L 20.28125 -23.9375 L 20.28125 -33.5 L 45.578125 -33.5 L 43.765625 -32.015625 C 43.765625 -34.828125 43.382812 -37.109375 42.625 -38.859375 C 41.863281 -40.609375 40.738281 -41.9375 39.25 -42.84375 C 37.769531 -43.757812 35.929688 -44.21875 33.734375 -44.21875 C 31.378906 -44.21875 29.34375 -43.664062 27.625 -42.5625 C 25.914062 -41.457031 24.601562 -39.84375 23.6875 -37.71875 C 22.78125 -35.59375 22.328125 -32.929688 22.328125 -29.734375 L 22.328125 -28.71875 C 22.328125 -23.320312 23.523438 -19.460938 25.921875 -17.140625 C 28.316406 -14.828125 32.019531 -13.671875 37.03125 -13.671875 C 38.707031 -13.671875 40.625 -13.878906 42.78125 -14.296875 C 44.945312 -14.710938 47.019531 -15.300781 49 -16.0625 C 50.976562 -16.820312 52.6875 -16.953125 54.125 -16.453125 C 55.570312 -15.960938 56.691406 -15.128906 57.484375 -13.953125 C 58.285156 -12.773438 58.722656 -11.445312 58.796875 -9.96875 C 58.867188 -8.488281 58.523438 -7.046875 57.765625 -5.640625 C 57.015625 -4.234375 55.765625 -3.148438 54.015625 -2.390625 C 51.359375 -1.171875 48.523438 -0.257812 45.515625 0.34375 C 42.515625 0.945312 39.5 1.25 36.46875 1.25 Z M 36.46875 1.25 "/></g></g><g style="fill:#0369a1;fill-opacity:1;"><g transform="translate(121.322708, 224.242371)"><path style="stroke:none" d="M 12.078125 0 C 10.023438 0 8.351562 -0.507812 7.0625 -1.53125 C 5.769531 -2.5625 4.894531 -3.875 4.4375 -5.46875 C 3.988281 -7.0625 4.007812 -8.789062 4.5 -10.65625 C 4.988281 -12.519531 5.957031 -14.25 7.40625 -15.84375 L 33.84375 -45.6875 L 33.84375 -41.140625 L 11.28125 -41.140625 C 8.851562 -41.140625 6.992188 -41.785156 5.703125 -43.078125 C 4.410156 -44.367188 3.765625 -46.226562 3.765625 -48.65625 C 3.765625 -51.082031 4.410156 -52.921875 5.703125 -54.171875 C 6.992188 -55.429688 8.851562 -56.0625 11.28125 -56.0625 L 43.53125 -56.0625 C 45.8125 -56.0625 47.671875 -55.546875 49.109375 -54.515625 C 50.554688 -53.492188 51.523438 -52.1875 52.015625 -50.59375 C 52.515625 -49 52.535156 -47.289062 52.078125 -45.46875 C 51.617188 -43.644531 50.671875 -41.9375 49.234375 -40.34375 L 22.109375 -9.6875 L 22.109375 -14.921875 L 46.375 -14.921875 C 51.46875 -14.921875 54.015625 -12.453125 54.015625 -7.515625 C 54.015625 -5.085938 53.367188 -3.226562 52.078125 -1.9375 C 50.785156 -0.644531 48.882812 0 46.375 0 Z M 12.078125 0 "/></g></g><g style="fill:#0369a1;fill-opacity:1;"><g transform="translate(176.815302, 224.242371)"><path style="stroke:none" d="M 27.796875 1.25 C 23.015625 1.25 18.78125 0.0703125 15.09375 -2.28125 C 11.414062 -4.632812 8.53125 -8.015625 6.4375 -12.421875 C 4.34375 -16.828125 3.296875 -22.03125 3.296875 -28.03125 C 3.296875 -34.1875 4.34375 -39.425781 6.4375 -43.75 C 8.53125 -48.082031 11.414062 -51.425781 15.09375 -53.78125 C 18.78125 -56.132812 23.015625 -57.3125 27.796875 -57.3125 C 31.984375 -57.3125 35.742188 -56.320312 39.078125 -54.34375 C 42.421875 -52.375 44.664062 -49.832031 45.8125 -46.71875 L 44.5625 -46.71875 L 44.5625 -71.109375 C 44.5625 -74.453125 45.429688 -76.992188 47.171875 -78.734375 C 48.921875 -80.484375 51.429688 -81.359375 54.703125 -81.359375 C 57.890625 -81.359375 60.375 -80.484375 62.15625 -78.734375 C 63.945312 -76.992188 64.84375 -74.453125 64.84375 -71.109375 L 64.84375 -9.234375 C 64.84375 -5.890625 63.988281 -3.34375 62.28125 -1.59375 C 60.570312 0.15625 58.082031 1.03125 54.8125 1.03125 C 51.625 1.03125 49.15625 0.15625 47.40625 -1.59375 C 45.65625 -3.34375 44.78125 -5.890625 44.78125 -9.234375 L 44.78125 -15.71875 L 46.03125 -10.140625 C 44.96875 -6.722656 42.742188 -3.96875 39.359375 -1.875 C 35.984375 0.207031 32.128906 1.25 27.796875 1.25 Z M 34.296875 -13.671875 C 36.347656 -13.671875 38.171875 -14.179688 39.765625 -15.203125 C 41.359375 -16.234375 42.59375 -17.789062 43.46875 -19.875 C 44.34375 -21.96875 44.78125 -24.6875 44.78125 -28.03125 C 44.78125 -33.125 43.789062 -36.789062 41.8125 -39.03125 C 39.84375 -41.269531 37.335938 -42.390625 34.296875 -42.390625 C 32.242188 -42.390625 30.421875 -41.894531 28.828125 -40.90625 C 27.234375 -39.914062 25.976562 -38.375 25.0625 -36.28125 C 24.15625 -34.195312 23.703125 -31.445312 23.703125 -28.03125 C 23.703125 -23.019531 24.6875 -19.375 26.65625 -17.09375 C 28.632812 -14.8125 31.179688 -13.671875 34.296875 -13.671875 Z M 34.296875 -13.671875 "/></g></g><g style="fill:#0369a1;fill-opacity:1;"><g transform="translate(247.46296, 224.242371)"><path style="stroke:none" d="M 26.890625 1.25 C 22.023438 1.25 18.035156 0.359375 14.921875 -1.421875 C 11.804688 -3.210938 9.46875 -5.890625 7.90625 -9.453125 C 6.351562 -13.023438 5.578125 -17.546875 5.578125 -23.015625 L 5.578125 -46.953125 C 5.578125 -50.296875 6.453125 -52.820312 8.203125 -54.53125 C 9.953125 -56.238281 12.457031 -57.09375 15.71875 -57.09375 C 18.988281 -57.09375 21.5 -56.238281 23.25 -54.53125 C 25 -52.820312 25.875 -50.296875 25.875 -46.953125 L 25.875 -22.453125 C 25.875 -19.710938 26.441406 -17.660156 27.578125 -16.296875 C 28.710938 -14.929688 30.5 -14.25 32.9375 -14.25 C 35.664062 -14.25 37.90625 -15.234375 39.65625 -17.203125 C 41.40625 -19.179688 42.28125 -21.800781 42.28125 -25.0625 L 42.28125 -46.953125 C 42.28125 -50.296875 43.148438 -52.820312 44.890625 -54.53125 C 46.640625 -56.238281 49.148438 -57.09375 52.421875 -57.09375 C 55.679688 -57.09375 58.1875 -56.238281 59.9375 -54.53125 C 61.6875 -52.820312 62.5625 -50.296875 62.5625 -46.953125 L 62.5625 -9.234375 C 62.5625 -2.390625 59.296875 1.03125 52.765625 1.03125 C 49.566406 1.03125 47.09375 0.15625 45.34375 -1.59375 C 43.601562 -3.34375 42.734375 -5.890625 42.734375 -9.234375 L 42.734375 -15.84375 L 44.5625 -10.25 C 42.882812 -6.53125 40.546875 -3.679688 37.546875 -1.703125 C 34.546875 0.265625 30.992188 1.25 26.890625 1.25 Z M 26.890625 1.25 "/></g></g><g style="fill:#0369a1;fill-opacity:1;"><g transform="translate(146.169823, 254.368723)"><path style="stroke:none" d="M 0.90625 0 L 0.90625 -7.5625 L 2.328125 -7.5625 L 2.328125 -1.21875 L 5.953125 -1.21875 L 5.953125 0 Z M 0.90625 0 "/></g></g><g style="fill:#0369a1;fill-opacity:1;"><g transform="translate(152.417232, 254.368723)"><path style="stroke:none" d="M 0.90625 0 L 0.90625 -7.5625 L 6.03125 -7.5625 L 6.03125 -6.421875 L 2.28125 -6.421875 L 2.28125 -4.40625 L 5.796875 -4.40625 L 5.796875 -3.265625 L 2.28125 -3.265625 L 2.28125 -1.15625 L 6.03125 -1.15625 L 6.03125 0 Z M 0.90625 0 "/></g></g><g style="fill:#0369a1;fill-opacity:1;"><g transform="translate(159.104747, 254.368723)"><path style="stroke:none" d="M 0.078125 0 L 3.5 -7.5625 L 4.703125 -7.5625 L 8.109375 0 L 6.671875 0 L 5.75 -2.125 L 6.359375 -1.6875 L 1.828125 -1.6875 L 2.421875 -2.125 L 1.53125 0 Z M 4.078125 -6.046875 L 2.578125 -2.5 L 2.296875 -2.828125 L 5.875 -2.828125 L 5.609375 -2.5 L 4.109375 -6.046875 Z M 4.078125 -6.046875 "/></g></g><g style="fill:#0369a1;fill-opacity:1;"><g transform="translate(167.295077, 254.368723)"><path style="stroke:none" d="M 0.90625 0 L 0.90625 -7.5625 L 4.25 -7.5625 C 5.09375 -7.5625 5.738281 -7.363281 6.1875 -6.96875 C 6.644531 -6.582031 6.875 -6.023438 6.875 -5.296875 C 6.875 -4.859375 6.78125 -4.484375 6.59375 -4.171875 C 6.414062 -3.859375 6.15625 -3.613281 5.8125 -3.4375 C 5.476562 -3.257812 5.078125 -3.160156 4.609375 -3.140625 L 4.671875 -3.21875 L 4.921875 -3.203125 C 5.160156 -3.191406 5.367188 -3.117188 5.546875 -2.984375 C 5.734375 -2.859375 5.898438 -2.648438 6.046875 -2.359375 L 7.328125 0 L 5.78125 0 L 4.515625 -2.359375 C 4.421875 -2.523438 4.320312 -2.648438 4.21875 -2.734375 C 4.113281 -2.828125 3.992188 -2.890625 3.859375 -2.921875 C 3.722656 -2.960938 3.5625 -2.984375 3.375 -2.984375 L 2.328125 -2.984375 L 2.328125 0 Z M 2.328125 -4.0625 L 4.046875 -4.0625 C 4.535156 -4.0625 4.898438 -4.160156 5.140625 -4.359375 C 5.378906 -4.554688 5.5 -4.859375 5.5 -5.265625 C 5.5 -5.648438 5.375 -5.941406 5.125 -6.140625 C 4.882812 -6.335938 4.519531 -6.4375 4.03125 -6.4375 L 2.328125 -6.4375 Z M 2.328125 -4.0625 "/></g></g><g style="fill:#0369a1;fill-opacity:1;"><g transform="translate(174.905752, 254.368723)"><path style="stroke:none" d="M 0.90625 0 L 0.90625 -7.5625 L 2.046875 -7.5625 L 6.265625 -2.03125 L 6.09375 -2.03125 L 6.09375 -7.5625 L 7.4375 -7.5625 L 7.4375 0 L 6.28125 0 L 2.09375 -5.515625 L 2.25 -5.515625 L 2.25 0 Z M 0.90625 0 "/></g></g><g style="fill:#0369a1;fill-opacity:1;"><g transform="translate(183.257101, 254.368723)"><path style="stroke:none" d="M 1.359375 1.5625 L 0.75 1.09375 C 0.90625 0.945312 1.023438 0.796875 1.109375 0.640625 C 1.203125 0.492188 1.269531 0.34375 1.3125 0.1875 C 1.363281 0.03125 1.390625 -0.128906 1.390625 -0.296875 L 1.6875 0 L 0.625 0 L 0.625 -1.546875 L 2.21875 -1.546875 L 2.21875 -0.46875 C 2.21875 -0.207031 2.1875 0.0351562 2.125 0.265625 C 2.070312 0.492188 1.984375 0.710938 1.859375 0.921875 C 1.742188 1.140625 1.578125 1.351562 1.359375 1.5625 Z M 1.359375 1.5625 "/></g></g><g style="fill:#0369a1;fill-opacity:1;"><g transform="translate(186.090978, 254.368723)"><path style="stroke:none" d=""/></g></g><g style="fill:#0369a1;fill-opacity:1;"><g transform="translate(189.118077, 254.368723)"><path style="stroke:none" d="M 0.90625 0 L 0.90625 -7.5625 L 4.265625 -7.5625 C 4.816406 -7.5625 5.285156 -7.46875 5.671875 -7.28125 C 6.066406 -7.101562 6.363281 -6.835938 6.5625 -6.484375 C 6.769531 -6.128906 6.875 -5.703125 6.875 -5.203125 C 6.875 -4.710938 6.769531 -4.285156 6.5625 -3.921875 C 6.363281 -3.566406 6.066406 -3.289062 5.671875 -3.09375 C 5.285156 -2.90625 4.816406 -2.8125 4.265625 -2.8125 L 2.328125 -2.8125 L 2.328125 0 Z M 2.328125 -3.9375 L 4.03125 -3.9375 C 4.507812 -3.9375 4.875 -4.039062 5.125 -4.25 C 5.375 -4.457031 5.5 -4.773438 5.5 -5.203125 C 5.5 -5.609375 5.375 -5.914062 5.125 -6.125 C 4.875 -6.332031 4.507812 -6.4375 4.03125 -6.4375 L 2.328125 -6.4375 Z M 2.328125 -3.9375 "/></g></g><g style="fill:#0369a1;fill-opacity:1;"><g transform="translate(196.395982, 254.368723)"><path style="stroke:none" d="M 0.90625 0 L 0.90625 -7.5625 L 4.25 -7.5625 C 5.09375 -7.5625 5.738281 -7.363281 6.1875 -6.96875 C 6.644531 -6.582031 6.875 -6.023438 6.875 -5.296875 C 6.875 -4.859375 6.78125 -4.484375 6.59375 -4.171875 C 6.414062 -3.859375 6.15625 -3.613281 5.8125 -3.4375 C 5.476562 -3.257812 5.078125 -3.160156 4.609375 -3.140625 L 4.671875 -3.21875 L 4.921875 -3.203125 C 5.160156 -3.191406 5.367188 -3.117188 5.546875 -2.984375 C 5.734375 -2.859375 5.898438 -2.648438 6.046875 -2.359375 L 7.328125 0 L 5.78125 0 L 4.515625 -2.359375 C 4.421875 -2.523438 4.320312 -2.648438 4.21875 -2.734375 C 4.113281 -2.828125 3.992188 -2.890625 3.859375 -2.921875 C 3.722656 -2.960938 3.5625 -2.984375 3.375 -2.984375 L 2.328125 -2.984375 L 2.328125 0 Z M 2.328125 -4.0625 L 4.046875 -4.0625 C 4.535156 -4.0625 4.898438 -4.160156 5.140625 -4.359375 C 5.378906 -4.554688 5.5 -4.859375 5.5 -5.265625 C 5.5 -5.648438 5.375 -5.941406 5.125 -6.140625 C 4.882812 -6.335938 4.519531 -6.4375 4.03125 -6.4375 L 2.328125 -6.4375 Z M 2.328125 -4.0625 "/></g></g><g style="fill:#0369a1;fill-opacity:1;"><g transform="translate(204.006657, 254.368723)"><path style="stroke:none" d="M 0.078125 0 L 3.5 -7.5625 L 4.703125 -7.5625 L 8.109375 0 L 6.671875 0 L 5.75 -2.125 L 6.359375 -1.6875 L 1.828125 -1.6875 L 2.421875 -2.125 L 1.53125 0 Z M 4.078125 -6.046875 L 2.578125 -2.5 L 2.296875 -2.828125 L 5.875 -2.828125 L 5.609375 -2.5 L 4.109375 -6.046875 Z M 4.078125 -6.046875 "/></g></g><g style="fill:#0369a1;fill-opacity:1;"><g transform="translate(212.196987, 254.368723)"><path style="stroke:none" d="M 4.40625 0.109375 C 3.632812 0.109375 2.96875 -0.046875 2.40625 -0.359375 C 1.84375 -0.679688 1.410156 -1.132812 1.109375 -1.71875 C 0.804688 -2.300781 0.65625 -2.992188 0.65625 -3.796875 C 0.65625 -4.585938 0.804688 -5.273438 1.109375 -5.859375 C 1.410156 -6.441406 1.835938 -6.890625 2.390625 -7.203125 C 2.953125 -7.515625 3.625 -7.671875 4.40625 -7.671875 C 4.925781 -7.671875 5.410156 -7.59375 5.859375 -7.4375 C 6.304688 -7.289062 6.679688 -7.070312 6.984375 -6.78125 L 6.5 -5.671875 C 6.175781 -5.941406 5.847656 -6.132812 5.515625 -6.25 C 5.191406 -6.375 4.835938 -6.4375 4.453125 -6.4375 C 3.710938 -6.4375 3.140625 -6.207031 2.734375 -5.75 C 2.335938 -5.289062 2.140625 -4.640625 2.140625 -3.796875 C 2.140625 -2.941406 2.335938 -2.285156 2.734375 -1.828125 C 3.140625 -1.367188 3.710938 -1.140625 4.453125 -1.140625 C 4.835938 -1.140625 5.191406 -1.195312 5.515625 -1.3125 C 5.847656 -1.425781 6.175781 -1.625 6.5 -1.90625 L 6.984375 -0.78125 C 6.679688 -0.5 6.304688 -0.28125 5.859375 -0.125 C 5.410156 0.03125 4.925781 0.109375 4.40625 0.109375 Z M 4.40625 0.109375 "/></g></g><g style="fill:#0369a1;fill-opacity:1;"><g transform="translate(219.657378, 254.368723)"><path style="stroke:none" d="M 2.734375 0 L 2.734375 -6.375 L 0.15625 -6.375 L 0.15625 -7.5625 L 6.734375 -7.5625 L 6.734375 -6.375 L 4.15625 -6.375 L 4.15625 0 Z M 2.734375 0 "/></g></g><g style="fill:#0369a1;fill-opacity:1;"><g transform="translate(226.538115, 254.368723)"><path style="stroke:none" d="M 0.90625 0 L 0.90625 -7.5625 L 2.328125 -7.5625 L 2.328125 0 Z M 0.90625 0 "/></g></g><g style="fill:#0369a1;fill-opacity:1;"><g transform="translate(229.76916, 254.368723)"><path style="stroke:none" d="M 4.40625 0.109375 C 3.632812 0.109375 2.96875 -0.046875 2.40625 -0.359375 C 1.84375 -0.679688 1.410156 -1.132812 1.109375 -1.71875 C 0.804688 -2.300781 0.65625 -2.992188 0.65625 -3.796875 C 0.65625 -4.585938 0.804688 -5.273438 1.109375 -5.859375 C 1.410156 -6.441406 1.835938 -6.890625 2.390625 -7.203125 C 2.953125 -7.515625 3.625 -7.671875 4.40625 -7.671875 C 4.925781 -7.671875 5.410156 -7.59375 5.859375 -7.4375 C 6.304688 -7.289062 6.679688 -7.070312 6.984375 -6.78125 L 6.5 -5.671875 C 6.175781 -5.941406 5.847656 -6.132812 5.515625 -6.25 C 5.191406 -6.375 4.835938 -6.4375 4.453125 -6.4375 C 3.710938 -6.4375 3.140625 -6.207031 2.734375 -5.75 C 2.335938 -5.289062 2.140625 -4.640625 2.140625 -3.796875 C 2.140625 -2.941406 2.335938 -2.285156 2.734375 -1.828125 C 3.140625 -1.367188 3.710938 -1.140625 4.453125 -1.140625 C 4.835938 -1.140625 5.191406 -1.195312 5.515625 -1.3125 C 5.847656 -1.425781 6.175781 -1.625 6.5 -1.90625 L 6.984375 -0.78125 C 6.679688 -0.5 6.304688 -0.28125 5.859375 -0.125 C 5.410156 0.03125 4.925781 0.109375 4.40625 0.109375 Z M 4.40625 0.109375 "/></g></g><g style="fill:#0369a1;fill-opacity:1;"><g transform="translate(237.229551, 254.368723)"><path style="stroke:none" d="M 0.90625 0 L 0.90625 -7.5625 L 6.03125 -7.5625 L 6.03125 -6.421875 L 2.28125 -6.421875 L 2.28125 -4.40625 L 5.796875 -4.40625 L 5.796875 -3.265625 L 2.28125 -3.265625 L 2.28125 -1.15625 L 6.03125 -1.15625 L 6.03125 0 Z M 0.90625 0 "/></g></g><g style="fill:#0369a1;fill-opacity:1;"><g transform="translate(243.917066, 254.368723)"><path style="stroke:none" d=""/></g></g><g style="fill:#0369a1;fill-opacity:1;"><g transform="translate(246.944165, 254.368723)"><path style="stroke:none" d="M 3.234375 0.109375 C 2.691406 0.109375 2.222656 0.0234375 1.828125 -0.140625 C 1.441406 -0.304688 1.140625 -0.535156 0.921875 -0.828125 C 0.710938 -1.128906 0.609375 -1.488281 0.609375 -1.90625 C 0.609375 -2.238281 0.671875 -2.535156 0.796875 -2.796875 C 0.921875 -3.054688 1.09375 -3.296875 1.3125 -3.515625 C 1.539062 -3.734375 1.804688 -3.929688 2.109375 -4.109375 L 2.515625 -4.359375 L 2.34375 -4.078125 C 2.007812 -4.398438 1.769531 -4.703125 1.625 -4.984375 C 1.476562 -5.265625 1.40625 -5.5625 1.40625 -5.875 C 1.40625 -6.21875 1.492188 -6.523438 1.671875 -6.796875 C 1.847656 -7.078125 2.097656 -7.289062 2.421875 -7.4375 C 2.753906 -7.59375 3.132812 -7.671875 3.5625 -7.671875 C 3.96875 -7.671875 4.316406 -7.601562 4.609375 -7.46875 C 4.910156 -7.332031 5.140625 -7.140625 5.296875 -6.890625 C 5.453125 -6.648438 5.53125 -6.363281 5.53125 -6.03125 C 5.53125 -5.757812 5.46875 -5.5 5.34375 -5.25 C 5.226562 -5.007812 5.046875 -4.78125 4.796875 -4.5625 C 4.554688 -4.351562 4.25 -4.140625 3.875 -3.921875 L 3.84375 -4.203125 L 5.671875 -2.296875 L 5.4375 -2.28125 C 5.59375 -2.550781 5.722656 -2.878906 5.828125 -3.265625 C 5.929688 -3.660156 5.992188 -4.070312 6.015625 -4.5 L 7.1875 -4.5 C 7.164062 -3.914062 7.066406 -3.363281 6.890625 -2.84375 C 6.722656 -2.332031 6.5 -1.890625 6.21875 -1.515625 L 6.15625 -1.828125 L 8 0 L 6.359375 0 L 5.4375 -0.953125 L 5.734375 -0.953125 C 5.421875 -0.617188 5.046875 -0.359375 4.609375 -0.171875 C 4.179688 0.015625 3.722656 0.109375 3.234375 0.109375 Z M 3.328125 -0.953125 C 3.679688 -0.953125 3.992188 -1.015625 4.265625 -1.140625 C 4.546875 -1.273438 4.789062 -1.472656 5 -1.734375 L 4.984375 -1.390625 L 2.75 -3.671875 L 3.296875 -3.640625 L 2.96875 -3.453125 C 2.738281 -3.304688 2.546875 -3.164062 2.390625 -3.03125 C 2.242188 -2.894531 2.132812 -2.742188 2.0625 -2.578125 C 2 -2.421875 1.96875 -2.242188 1.96875 -2.046875 C 1.96875 -1.703125 2.085938 -1.429688 2.328125 -1.234375 C 2.566406 -1.046875 2.898438 -0.953125 3.328125 -0.953125 Z M 3.5625 -6.703125 C 3.300781 -6.703125 3.082031 -6.628906 2.90625 -6.484375 C 2.738281 -6.335938 2.65625 -6.132812 2.65625 -5.875 C 2.65625 -5.738281 2.679688 -5.609375 2.734375 -5.484375 C 2.785156 -5.359375 2.867188 -5.222656 2.984375 -5.078125 C 3.109375 -4.941406 3.265625 -4.773438 3.453125 -4.578125 L 3.15625 -4.625 C 3.445312 -4.800781 3.679688 -4.957031 3.859375 -5.09375 C 4.035156 -5.226562 4.164062 -5.363281 4.25 -5.5 C 4.34375 -5.632812 4.390625 -5.785156 4.390625 -5.953125 C 4.390625 -6.191406 4.3125 -6.375 4.15625 -6.5 C 4 -6.632812 3.800781 -6.703125 3.5625 -6.703125 Z M 3.5625 -6.703125 "/></g></g><g style="fill:#0369a1;fill-opacity:1;"><g transform="translate(254.823205, 254.368723)"><path style="stroke:none" d=""/></g></g><g style="fill:#0369a1;fill-opacity:1;"><g transform="translate(257.850304, 254.368723)"><path style="stroke:none" d="M 4.53125 0.109375 C 3.707031 0.109375 3.003906 -0.046875 2.421875 -0.359375 C 1.847656 -0.679688 1.410156 -1.128906 1.109375 -1.703125 C 0.804688 -2.285156 0.65625 -2.976562 0.65625 -3.78125 C 0.65625 -4.582031 0.804688 -5.273438 1.109375 -5.859375 C 1.421875 -6.441406 1.863281 -6.890625 2.4375 -7.203125 C 3.019531 -7.515625 3.710938 -7.671875 4.515625 -7.671875 C 4.878906 -7.671875 5.226562 -7.632812 5.5625 -7.5625 C 5.894531 -7.5 6.203125 -7.40625 6.484375 -7.28125 C 6.765625 -7.15625 7.007812 -7 7.21875 -6.8125 L 6.75 -5.71875 C 6.40625 -5.976562 6.050781 -6.160156 5.6875 -6.265625 C 5.332031 -6.378906 4.941406 -6.4375 4.515625 -6.4375 C 3.742188 -6.4375 3.148438 -6.207031 2.734375 -5.75 C 2.316406 -5.300781 2.109375 -4.644531 2.109375 -3.78125 C 2.109375 -2.894531 2.316406 -2.226562 2.734375 -1.78125 C 3.160156 -1.332031 3.785156 -1.109375 4.609375 -1.109375 C 4.929688 -1.109375 5.238281 -1.132812 5.53125 -1.1875 C 5.832031 -1.238281 6.117188 -1.316406 6.390625 -1.421875 L 6.09375 -0.78125 L 6.09375 -3.0625 L 4.375 -3.0625 L 4.375 -4.171875 L 7.28125 -4.171875 L 7.28125 -0.453125 C 7.050781 -0.335938 6.785156 -0.238281 6.484375 -0.15625 C 6.179688 -0.0703125 5.863281 -0.0078125 5.53125 0.03125 C 5.195312 0.0820312 4.863281 0.109375 4.53125 0.109375 Z M 4.53125 0.109375 "/></g></g><g style="fill:#0369a1;fill-opacity:1;"><g transform="translate(265.976227, 254.368723)"><path style="stroke:none" d="M 0.90625 0 L 0.90625 -7.5625 L 4.25 -7.5625 C 5.09375 -7.5625 5.738281 -7.363281 6.1875 -6.96875 C 6.644531 -6.582031 6.875 -6.023438 6.875 -5.296875 C 6.875 -4.859375 6.78125 -4.484375 6.59375 -4.171875 C 6.414062 -3.859375 6.15625 -3.613281 5.8125 -3.4375 C 5.476562 -3.257812 5.078125 -3.160156 4.609375 -3.140625 L 4.671875 -3.21875 L 4.921875 -3.203125 C 5.160156 -3.191406 5.367188 -3.117188 5.546875 -2.984375 C 5.734375 -2.859375 5.898438 -2.648438 6.046875 -2.359375 L 7.328125 0 L 5.78125 0 L 4.515625 -2.359375 C 4.421875 -2.523438 4.320312 -2.648438 4.21875 -2.734375 C 4.113281 -2.828125 3.992188 -2.890625 3.859375 -2.921875 C 3.722656 -2.960938 3.5625 -2.984375 3.375 -2.984375 L 2.328125 -2.984375 L 2.328125 0 Z M 2.328125 -4.0625 L 4.046875 -4.0625 C 4.535156 -4.0625 4.898438 -4.160156 5.140625 -4.359375 C 5.378906 -4.554688 5.5 -4.859375 5.5 -5.265625 C 5.5 -5.648438 5.375 -5.941406 5.125 -6.140625 C 4.882812 -6.335938 4.519531 -6.4375 4.03125 -6.4375 L 2.328125 -6.4375 Z M 2.328125 -4.0625 "/></g></g><g style="fill:#0369a1;fill-opacity:1;"><g transform="translate(273.586902, 254.368723)"><path style="stroke:none" d="M 4.328125 0.109375 C 3.765625 0.109375 3.257812 0.0195312 2.8125 -0.15625 C 2.363281 -0.34375 1.976562 -0.601562 1.65625 -0.9375 C 1.332031 -1.28125 1.082031 -1.691406 0.90625 -2.171875 C 0.738281 -2.648438 0.65625 -3.191406 0.65625 -3.796875 C 0.65625 -4.390625 0.738281 -4.921875 0.90625 -5.390625 C 1.082031 -5.867188 1.332031 -6.273438 1.65625 -6.609375 C 1.976562 -6.953125 2.363281 -7.210938 2.8125 -7.390625 C 3.257812 -7.578125 3.765625 -7.671875 4.328125 -7.671875 C 4.878906 -7.671875 5.378906 -7.578125 5.828125 -7.390625 C 6.273438 -7.210938 6.660156 -6.957031 6.984375 -6.625 C 7.304688 -6.289062 7.550781 -5.882812 7.71875 -5.40625 C 7.894531 -4.925781 7.984375 -4.390625 7.984375 -3.796875 C 7.984375 -3.203125 7.894531 -2.664062 7.71875 -2.1875 C 7.550781 -1.707031 7.304688 -1.296875 6.984375 -0.953125 C 6.660156 -0.609375 6.273438 -0.34375 5.828125 -0.15625 C 5.378906 0.0195312 4.878906 0.109375 4.328125 0.109375 Z M 4.328125 -1.109375 C 4.796875 -1.109375 5.191406 -1.210938 5.515625 -1.421875 C 5.835938 -1.628906 6.085938 -1.929688 6.265625 -2.328125 C 6.441406 -2.734375 6.53125 -3.222656 6.53125 -3.796875 C 6.53125 -4.359375 6.441406 -4.835938 6.265625 -5.234375 C 6.097656 -5.640625 5.847656 -5.941406 5.515625 -6.140625 C 5.191406 -6.347656 4.796875 -6.453125 4.328125 -6.453125 C 3.859375 -6.453125 3.457031 -6.347656 3.125 -6.140625 C 2.800781 -5.941406 2.550781 -5.640625 2.375 -5.234375 C 2.195312 -4.835938 2.109375 -4.359375 2.109375 -3.796875 C 2.109375 -3.222656 2.195312 -2.734375 2.375 -2.328125 C 2.550781 -1.929688 2.800781 -1.628906 3.125 -1.421875 C 3.457031 -1.210938 3.859375 -1.109375 4.328125 -1.109375 Z M 4.328125 -1.109375 "/></g></g><g style="fill:#0369a1;fill-opacity:1;"><g transform="translate(282.228072, 254.368723)"><path style="stroke:none" d="M 2.890625 0 L 0.328125 -7.5625 L 1.796875 -7.5625 L 3.71875 -1.5625 L 3.453125 -1.5625 L 5.53125 -7.5625 L 6.59375 -7.5625 L 8.609375 -1.5625 L 8.390625 -1.5625 L 10.328125 -7.5625 L 11.71875 -7.5625 L 9.140625 0 L 7.921875 0 L 5.953125 -5.6875 L 6.09375 -5.6875 L 4.09375 0 Z M 2.890625 0 "/></g></g></g></svg>